<?xml version="1.0" encoding="utf-8"?>
<!-- Generator: Adobe Illustrator 28.0.0, SVG Export Plug-In . SVG Version: 6.00 Build 0)  -->
<svg version="1.1" id="Layer_1" xmlns="http://www.w3.org/2000/svg" xmlns:xlink="http://www.w3.org/1999/xlink" x="0px" y="0px"
	 viewBox="0 0 1000 1000" style="enable-background:new 0 0 1000 1000;" xml:space="preserve">
<style type="text/css">
	.st0{fill:#4377BB;}
	.st1{fill:#F7B512;}
	.st2{fill:none;}
</style>
<g>
	<path class="st0" d="M711.73,329.46c-5.69,4.3-40.68,25.91-51.38,32.91C514.2,457.96,426.27,620.35,423.34,616.33
		c-26.38-36.19-68.56-86.16-88.04-102.53c-12.48-10.48-15.91-14.52-33.65-23.82c-6.53-3.42-20.4-12.12-32.39-7.48
		c46.16,58.33,129.48,246.07,131.76,249.94c2.28,3.86,16.58,34.92,21.15,39.74c18.49,21.67,34.15,0.79,35.52-2.38
		c13.28-30.54,27.66-60.55,42.68-90.27c10.22-20.22,20.85-40.22,31.86-60.02c13.98-25.14,28.7-49.85,44.06-74.18
		c12.39-19.63,25.36-38.87,38.61-57.95c20.2-29.1,41.72-57.21,63.93-84.77c12.63-15.67,26.02-30.73,39.24-45.92
		c7.07-8.12,14.5-15.92,21.73-23.91C740.75,331.72,711.75,332.31,711.73,329.46z"/>
	<g>
		<circle class="st1" cx="681.11" cy="287.55" r="10.16"/>
		<circle class="st1" cx="704.69" cy="293.81" r="10.16"/>
		<circle class="st1" cx="725.78" cy="306.09" r="10.16"/>
		<circle class="st1" cx="742.86" cy="323.53" r="10.16"/>
		<circle class="st1" cx="754.7" cy="344.87" r="10.16"/>
		<circle class="st1" cx="760.46" cy="368.58" r="10.16"/>
		<circle class="st1" cx="759.74" cy="392.98" r="10.16"/>
		<circle class="st1" cx="752.57" cy="416.31" r="10.16"/>
		<circle class="st1" cx="739.48" cy="436.9" r="10.16"/>
		<circle class="st1" cx="721.39" cy="453.29" r="10.16"/>
		<circle class="st1" cx="699.61" cy="464.3" r="10.16"/>
		<circle class="st1" cx="675.69" cy="469.14" r="10.16"/>
		<circle class="st1" cx="651.35" cy="467.47" r="10.16"/>
		<circle class="st1" cx="628.31" cy="459.41" r="10.16"/>
		<circle class="st1" cx="608.24" cy="445.53" r="10.16"/>
		<circle class="st1" cx="592.56" cy="426.83" r="10.16"/>
		<circle class="st1" cx="582.4" cy="404.64" r="10.16"/>
		<circle class="st1" cx="578.49" cy="380.55" r="10.16"/>
		<circle class="st1" cx="581.09" cy="356.28" r="10.16"/>
		<circle class="st1" cx="590.04" cy="333.58" r="10.16"/>
		<circle class="st1" cx="604.69" cy="314.06" r="10.16"/>
		<circle class="st1" cx="626.61" cy="298.46" r="10.16"/>
		<circle class="st1" cx="653.11" cy="288.7" r="10.16"/>
		<circle class="st1" cx="670.95" cy="378.74" r="88.24"/>
		<circle class="st1" cx="691.26" cy="264.33" r="12.92"/>
		<circle class="st1" cx="744.54" cy="288.7" r="12.92"/>
		<circle class="st1" cx="778.21" cy="335.81" r="12.92"/>
		<circle class="st1" cx="784.62" cy="397.04" r="12.92"/>
		<circle class="st1" cx="758.84" cy="452.93" r="12.92"/>
		<circle class="st1" cx="708.1" cy="487.8" r="12.92"/>
		<circle class="st1" cx="646.68" cy="491.84" r="12.92"/>
		<circle class="st1" cx="591.82" cy="463.92" r="12.92"/>
		<circle class="st1" cx="558.94" cy="411.88" r="12.92"/>
		<circle class="st1" cx="557.28" cy="350.34" r="12.92"/>
		<circle class="st1" cx="587.3" cy="296.6" r="12.92"/>
		<circle class="st1" cx="633.75" cy="269.09" r="12.92"/>
	</g>
	<rect x="253.94" y="236.04" class="st2" width="555.52" height="555.52"/>
</g>
</svg>
