<?xml version="1.0" encoding="utf-8"?>
<!-- Generator: Adobe Illustrator 28.0.0, SVG Export Plug-In . SVG Version: 6.00 Build 0)  -->
<svg version="1.1" id="Layer_1" xmlns="http://www.w3.org/2000/svg" xmlns:xlink="http://www.w3.org/1999/xlink" x="0px" y="0px"
	 viewBox="0 0 1959 2301" style="enable-background:new 0 0 1959 2301;" xml:space="preserve">
<style type="text/css">
	.st0{fill:#4377BB;}
	.st1{fill:#F7B512;}
	.st2{fill:none;}
</style>
<g>
	<path class="st0" d="M1619.4,595.9c-20.5,15.5-146.3,93.2-184.8,118.4c-525.8,343.9-842.1,928.1-852.7,913.7
		c-94.9-130.2-246.6-310-316.7-368.9c-44.9-37.7-57.2-52.2-121.1-85.7c-23.5-12.3-73.4-43.6-116.5-26.9
		c166.1,209.8,465.8,885.3,474,899.2c8.2,13.9,59.7,125.6,76.1,143c66.5,78,122.8,2.9,127.8-8.5c47.8-109.9,99.5-217.8,153.5-324.8
		c36.8-72.8,75-144.7,114.6-215.9c50.3-90.4,103.3-179.3,158.5-266.9c44.6-70.6,91.2-139.9,138.9-208.5
		c72.7-104.7,150.1-205.8,230-305c45.4-56.4,93.6-110.6,141.2-165.2c25.4-29.2,52.2-57.3,78.2-86
		C1723.8,604,1619.5,606.1,1619.4,595.9z"/>
	<g>
		<circle class="st1" cx="1509.2" cy="445.1" r="36.5"/>
		<circle class="st1" cx="1594.1" cy="467.6" r="36.5"/>
		<circle class="st1" cx="1669.9" cy="511.8" r="36.5"/>
		<circle class="st1" cx="1731.4" cy="574.5" r="36.5"/>
		<circle class="st1" cx="1774" cy="651.3" r="36.5"/>
		<circle class="st1" cx="1794.7" cy="736.6" r="36.5"/>
		<circle class="st1" cx="1792.1" cy="824.4" r="36.5"/>
		<circle class="st1" cx="1766.3" cy="908.3" r="36.5"/>
		<circle class="st1" cx="1719.2" cy="982.4" r="36.5"/>
		<circle class="st1" cx="1654.2" cy="1041.4" r="36.5"/>
		<circle class="st1" cx="1575.8" cy="1081" r="36.5"/>
		<circle class="st1" cx="1489.8" cy="1098.4" r="36.5"/>
		<circle class="st1" cx="1402.2" cy="1092.4" r="36.5"/>
		<circle class="st1" cx="1319.3" cy="1063.4" r="36.5"/>
		<circle class="st1" cx="1247.1" cy="1013.4" r="36.5"/>
		<circle class="st1" cx="1190.7" cy="946.2" r="36.5"/>
		<circle class="st1" cx="1154.1" cy="866.3" r="36.5"/>
		<circle class="st1" cx="1140" cy="779.7" r="36.5"/>
		<circle class="st1" cx="1149.4" cy="692.4" r="36.5"/>
		<circle class="st1" cx="1181.6" cy="610.7" r="36.5"/>
		<circle class="st1" cx="1234.3" cy="540.4" r="36.5"/>
		<circle class="st1" cx="1313.2" cy="484.3" r="36.5"/>
		<circle class="st1" cx="1408.5" cy="449.2" r="36.5"/>
		<circle class="st1" cx="1472.7" cy="773.2" r="317.5"/>
		<circle class="st1" cx="1545.8" cy="361.6" r="46.5"/>
		<circle class="st1" cx="1737.4" cy="449.2" r="46.5"/>
		<circle class="st1" cx="1858.6" cy="618.7" r="46.5"/>
		<circle class="st1" cx="1881.6" cy="839" r="46.5"/>
		<circle class="st1" cx="1788.9" cy="1040.1" r="46.5"/>
		<circle class="st1" cx="1606.4" cy="1165.5" r="46.5"/>
		<circle class="st1" cx="1385.4" cy="1180" r="46.5"/>
		<circle class="st1" cx="1188" cy="1079.6" r="46.5"/>
		<circle class="st1" cx="1069.7" cy="892.4" r="46.5"/>
		<circle class="st1" cx="1063.7" cy="671" r="46.5"/>
		<circle class="st1" cx="1171.8" cy="477.7" r="46.5"/>
		<circle class="st1" cx="1338.9" cy="378.7" r="46.5"/>
	</g>
	<rect x="-27.6" y="259.8" class="st2" width="1998.6" height="1998.6"/>
</g>
</svg>
